/* XPM */
static char *result[] = {
/* columns rows colors chars-per-pixel */
"40 40 53 1 ",
"  c #343434",
". c gray22",
"X c #3A3A3A",
"o c #3F3E3F",
"O c #320F66",
"+ c #2B1061",
"@ c #4E0D52",
"# c #7C077C",
"$ c #7B087F",
"% c #471BA0",
"& c #481BA2",
"* c #4B1EA1",
"= c #4B20A1",
"- c #6123DC",
"; c #6323DE",
": c #6124DF",
"> c #6224E1",
", c #6527E0",
"< c #6728E2",
"1 c #800780",
"2 c #B672B9",
"3 c #B772BB",
"4 c #BA75BA",
"5 c #BA76BA",
"6 c #BC77BC",
"7 c #F800FA",
"8 c #FB00FB",
"9 c magenta",
"0 c #BC8DBC",
"q c #BC8EBC",
"w c #BC8FBC",
"e c #BE90BE",
"r c #BBA4BB",
"t c #BDA6BD",
"y c #BFA7BF",
"u c #BFA8BF",
"i c #BCBBBF",
"p c #C1AAC1",
"a c #EFAFF3",
"s c #F2ADF2",
"d c #F4AFF4",
"f c #C0C0C0",
"g c #EADFDF",
"h c #F5C7F5",
"j c #F7C9F7",
"k c #F7E1F7",
"l c #F7E2F7",
"z c #F9E3F9",
"x c #F9E4F9",
"c c #F9F8F9",
"v c #F9F9F9",
"b c #FFFEFF",
"n c white",
/* pixels */
"nnnnnnnnnnnnnnnnnnnvX                   ",
"nnnnnnnnnnnnnnnnnnnvX                   ",
"nnnnnnnnnnnnnnnnnnnvX                   ",
"nnnnnnnnnbbbbbbbbbbco.....              ",
"nnnnnnnnnxxxxxxxxxxltrrrrr              ",
"nnnnnnnnzjjjjjjjjjjheqqqqqu             ",
"nnnnnnnzjdddddddddds644444qr.           ",
"nnnnnnzjd>%%%fffgggi=>>gg%4wy           ",
"nnnnnzjd%>%%%fffffgi=>>ff%>50u          ",
"nnnnnzjd>>%%%fffffgi=>>ff%>,3qu         ",
"nnnnnzjd>>%%%fffffgi=%%ff%>>>4qu        ",
"nnnnnzjd>>%%%ffffffffffff%>>>>20y.      ",
"nnnnnzjd>>%%%ffffffffffff%>>>>*5wr      ",
"nnnnnzjd>>%%%ffffffffffff%>>>>>4qu      ",
"nnnnnzjd>>>>>>>>>>>>>>>>>>>>>>>4qu      ",
"nnnnnzjd>>>>>>>>>>>>>>>>>>>>>>>4qu      ",
"nnnnnzjd>>>>>>>>>>>>>>>>>>>>>>>4qu      ",
"nnnnnzjd>>>>>>>>>>>>>>>>>>>>>>>4qu      ",
"nnnnnzjd>>>################$;>>4qu      ",
"vvvvvkhs>>>1899999999999999a<>>6epXXXXXX",
"XXXXXpe6>>>1899999999999999a<>>shkvvvvvv",
"     uq4>>>189+999999999999a<>>djznnnnnn",
"     uq4>>>1899999999999999a<>>djznnnnnn",
"     uq4>>>189+++++++++++99a<>>djznnnnnn",
"     uq4>>>1899999999999999a<>>djznnnnnn",
"     uq4>>>189+999999999999a<>>djznnnnnn",
"     uq4>>>1899999999999999a<>>djznnnnnn",
"     uq4:@>189OOOOOOOOOOO99a<@:djznnnnnn",
"     uq4&->1897777777777799a<-&djznnnnnn",
"      uq4%%%%%%%%%%%%%%%%%%%%%djznnnnnnn",
"       uq44444444446sdddddddddjznnnnnnnn",
"        uqqqqqqqqqqehjjjjjjjjjznnnnnnnnn",
"         uuuuuuuuuupkzzzzzzzzznnnnnnnnnn",
"                   Xvnnnnnnnnnnnnnnnnnnn",
"                   Xvnnnnnnnnnnnnnnnnnnn",
"                   Xvnnnnnnnnnnnnnnnnnnn",
"                   Xvnnnnnnnnnnnnnnnnnnn",
"                   Xvnnnnnnnnnnnnnnnnnnn",
"                   Xvnnnnnnnnnnnnnnnnnnn",
"                   Xvnnnnnnnnnnnnnnnnnnn"
};
