/* XPM */
static char *_e144b8b282a411fa54906020e8cd039Srw4F7uLklnX1QFH[] = {
/* columns rows colors chars-per-pixel */
"40 40 10 1 ",
"  c None",
". c #2B1061",
"X c #4D0C4D",
"o c #7C077C",
"O c #471BA0",
"+ c #6224E1",
"@ c magenta",
"# c #F4B3F4",
"$ c #C0C0C0",
"% c #EADFDF",
/* pixels */
"                                        ",
"                                        ",
"                                        ",
"                                        ",
"                                        ",
"                                        ",
"                                        ",
"         +OOO$$$%%%$O++%%O              ",
"        O+OOO$$$$$%$O++$$O+             ",
"        ++OOO$$$$$%$O++$$O++            ",
"        ++OOO$$$$$%$OOO$$O+++           ",
"        ++OOO$$$$$$$$$$$$O++++          ",
"        ++OOO$$$$$$$$$$$$O++++O         ",
"        ++OOO$$$$$$$$$$$$O+++++         ",
"        +++++++++++++++++++++++         ",
"        +++++++++++++++++++++++         ",
"        +++++++++++++++++++++++         ",
"        +++++++++++++++++++++++         ",
"        +++ooooooooooooooooo+++         ",
"        +++o@@@@@@@@@@@@@@@#+++         ",
"        +++o@@@@@@@@@@@@@@@#+++         ",
"        +++o@@.@@@@@@@@@@@@#+++         ",
"        +++o@@@@@@@@@@@@@@@#+++         ",
"        +++o@@...........@@#+++         ",
"        +++o@@@@@@@@@@@@@@@#+++         ",
"        +++o@@.@@@@@@@@@@@@#+++         ",
"        +++o@@@@@@@@@@@@@@@#+++         ",
"        +X+o@@...........@@#+X+         ",
"        O++o@@@@@@@@@@@@@@@#++O         ",
"         OOOOOOOOOOOOOOOOOOOOO          ",
"                                        ",
"                                        ",
"                                        ",
"                                        ",
"                                        ",
"                                        ",
"                                        ",
"                                        ",
"                                        ",
"                                        "
};
