/* XPM */
static char *result[] = {
/* columns rows colors chars-per-pixel */
"40 40 55 1 ",
"  c black",
". c #000508",
"X c #343434",
"o c #34353A",
"O c #3A3A3A",
"+ c #353741",
"@ c #3B3C41",
"# c #5A76E9",
"$ c #5B74EA",
"% c #5976EA",
"& c #5A76EA",
"* c #5D75E9",
"= c #5C74EA",
"- c #4163F9",
"; c #4362F8",
": c #4362F9",
"> c #4363FF",
", c #4164FE",
"< c #4165FF",
"1 c #4464FE",
"2 c #4564FE",
"3 c #4566FF",
"4 c #4769FE",
"5 c #4968FF",
"6 c #6279EA",
"7 c #0587DC",
"8 c #0487DD",
"9 c #0686DE",
"0 c #0288DC",
"q c #0289DD",
"w c #0091ED",
"e c #0094F7",
"r c #0297FF",
"t c #0697FE",
"y c #0098FD",
"u c #0098FE",
"i c #0099FF",
"p c #0398FE",
"a c #049AFF",
"s c #0A9AFF",
"d c #089CFF",
"f c #E2B9E2",
"g c #E3BAE3",
"h c #8BC2FF",
"j c #89C4FF",
"k c #8DC5FF",
"l c #F3D2F3",
"z c #F4D3F4",
"x c #F1F6F9",
"c c #F3F5FF",
"v c #F7FCFF",
"b c #F9F9F9",
"n c #F9FAFF",
"m c #FAFBFE",
"M c white",
/* pixels */
"MMMMMMMMMMMMMMMMMMMbOXXXXXXXXXXXXXXXXXXX",
"MMMMMMMMMMMMMMMMMMMbOXXXXXXXXXXXXXXXXXXX",
"MMMMMMMMMM>>>>>>>MMbOXXXXXXXXXXXXXXXXXXX",
"MMMMMMMMn3kjjiiii<vx@oXXXXXXXXXXXXXXXXXX",
"MMMMMMMM5hkaaiiiirds-:XXXXXXXXXXXXXXXXXX",
"MMMMMMM>kkiiiiiiiiiii0>XXXXXXXXXXXXXXXXX",
"MMMMMM>kiiiiiiiiiiiiii0>XXXXXXXXXXXXXXXX",
"MMMn5>kiiiiiiiiiiiiiiii0>XXXXXXXXXXXXXXX",
">>>3hiiiiiM.eiiiiiiiiiii0>>>>>>>>>>>>>XX",
"kkkkkiiiii .eiiiiiiiiiiii0kkkkkkkk0=1XXX",
"kiiiiiiiizfgliiiiiiiiiiiiiiiiiii000:oXXX",
"**ppppiiiiiiiiiiiiiiiiiiiiiiiuu078:XXXXX",
"**&&&&iiiiiiiiiiiiiiiiiiiiiiiqq0#,oXXXXX",
"M>>1=iiiiiiiiiiiiiiiiiiiiiiii00*>XXXXXXX",
"MMMn5***iiiiiiiiiiiiiiiiiiiiii0>XXXXXXXX",
"MMMMM>>>*iiiiiiiiiiiiiiiiiiiiii*>XXXXXXX",
"MMMMMMMM>0w**iiiiiiiiiiiiiiiiii*>XXXXXXX",
"MMMMMMMMM0000**kiiiiiiiiiiiiiii0>XXXXXXX",
"MMMMMMMMM007#>*kiiiiiiiiiiiiiiii0>XXXXXX",
"bbbbbbbbb07$;b*kiip%tpuuiiiiiiii0>OOOOOO",
"OOOOOOOOO0#;+O*kii&2%&qqiiiiiiii0>bbbbbb",
"XXXXXXXXX*>XXX*ki*>Ob>*00iiiiiii00>MMMMM",
"XXXXXXXXX>XXXX*k*>XObM>*00iiiiiii0>MMMMM",
"XXXXXXXXXXXXXX**>XXObMM>*00iiiiii0>MMMMM",
"XXXXXXXXXXXXXX>>XXXObMMM>*0quiiii0>MMMMM",
"XXXXXXXXXXXXXXXXXXXObMMMM>*quiiii0>MMMMM",
"XXXXXXXXXXXXXXXXXXXObMMMMM>00iiii0>MMMMM",
"XXXXXXXXXXXXXXXXXXXObMMMMMM497ii07>MMMMM",
"XXXXXXXXXXXXXXXXXXXObMMMMMMc4#ii0#>MMMMM",
"XXXXXXXXXXXXXXXXXXXObMMMMMMn5*ii0*>5nMMM",
"XXXXXXXXXXXXXXXXXXXObMMMMMM3hkiiiii=1MMM",
"XXXXXXXXXXXXXXXXXXXObMMMMM>3hiiiiiip&>MM",
"XXXXXXXXXXXXXXXXXXXObMMMMM>kkiiiiiiii*MM",
"XXXXXXXXXXXXXXXXXXXObMMMM>kjaiiii0iiii>M",
"XXXXXXXXXXXXXXXXXXXObMMM>kkiiii**00iii*>",
"XXXXXXXXXXXXXXXXXXXObMMM>kiiid6M580qyui>",
"XXXXXXXXXXXXXXXXXXXObMMM>kiiivmMn,00qqi>",
"XXXXXXXXXXXXXXXXXXXObMMM>iidvMMMMM>,800>",
"XXXXXXXXXXXXXXXXXXXObMMM>i>MMMMMMMMn5>0>",
"XXXXXXXXXXXXXXXXXXXObMMMM>MMMMMMMMMMMM**"
};
