/* XPM */
static char *_725da36db9a4fef80f83bfc5987423bhp0zm37Rbgt6rIyX[] = {
/* columns rows colors chars-per-pixel */
"40 40 10 1 ",
"  c None",
". c black",
"X c #5D75E9",
"o c #0288DC",
"O c #0091ED",
"+ c #0099FF",
"@ c #E2B9E2",
"# c #8DC5FF",
"$ c #F4D3F4",
"% c white",
/* pixels */
"                                        ",
"                                        ",
"                                        ",
"          ###++++                       ",
"         ##+++++++++                    ",
"        ##+++++++++++o                  ",
"       #++++++++++++++o                 ",
"      #++++++++++++++++o                ",
"    #+++++%.++++++++++++o               ",
"#####+++++..+++++++++++++o########oX    ",
"#++++++++$@@$+++++++++++++++++++ooo     ",
"XX+++++++++++++++++++++++++++++ooo      ",
"XXXXXX+++++++++++++++++++++++oooX       ",
"    X++++++++++++++++++++++++ooX        ",
"     XXX++++++++++++++++++++++o         ",
"        X++++++++++++++++++++++X        ",
"         oOXX++++++++++++++++++X        ",
"         ooooXX#+++++++++++++++o        ",
"         oooX X#++++++++++++++++o       ",
"         ooX  X#+++X++++++++++++o       ",
"         oX   X#++X XXoo++++++++o       ",
"         X    X#+X    Xoo+++++++oo      ",
"              X#X      Xoo+++++++o      ",
"              XX        Xoo++++++o      ",
"                         Xoo+++++o      ",
"                          Xo+++++o      ",
"                           oo++++o      ",
"                            oo++oo      ",
"                             X++oX      ",
"                             X++oX      ",
"                            ##+++++X    ",
"                            #+++++++X   ",
"                           ##++++++++X  ",
"                          ##+++++o++++  ",
"                         ##++++XXoo+++X ",
"                         #++++X  ooo+++ ",
"                         #+++     oooo+ ",
"                         +++        ooo ",
"                         +            o ",
"                                        "
};
