/* XPM */
static char *bbc20ba2c4554323d57265390ed95b79punxwc7RUhc4V8R6[] = {
/* columns rows colors chars-per-pixel */
"40 40 8 1 ",
"  c None",
". c black",
"X c #909090",
"o c #B9B5B5",
"O c #E3BABA",
"+ c #C0C0C0",
"@ c #DDD6D6",
"# c #EEEEEE",
/* pixels */
"          XXXXXXXXXXXXXXXX              ",
"         XX    ++++++++++XX             ",
"        XX  +++++@@@@@@@@+XX            ",
"       XX +++@@@@@@@@@@@++XX            ",
"       X +++@@@@@@@+++++++XX            ",
"      XXo @@@@@@XXoooooo++XX            ",
"     XX++@@@@@XXoooo@####++X            ",
"     Xooo@@@@XXooo#######++X            ",
"     Xoo@@ @XXooo#########+X            ",
"     Xoo@@@@Xoo###########++            ",
"     Xoo@@@Xooo###########@+            ",
"     XX+@@XXo##############+            ",
"      X+@ Xoo###@#####+++@@+.           ",
"      X............##+.......           ",
"      XXX###..#.#......#.#..            ",
"       XX####.....@##@.....+            ",
"       XXoo#####@@@@#######+            ",
"        XX@@OOO#@ @@##@@OOO             ",
"         XXX@@@@@@XXXX@@@@+             ",
"          +X@@@@@@@@@@@@@++             ",
"           +X@@@@@@###@@@++             ",
"            X @@@#####@@++              ",
"            XX @@++XX+@@+               ",
"            XXX @@@##@@+X               ",
"            XXX+ @@@##++X               ",
"            XXXX++@@#+o@X               ",
"           +XXXXXX+++o@@@XXXX           ",
"           +XXXXXX@@@@@@######XXX       ",
"          XXXooooo@@@@@@########XX      ",
"          XXooo@@@@#@@@@##X@@@@@@X      ",
"        +XXoXX##@@@@@@@###XX@@@@XX      ",
"       +XXooooX##@@@@@@###X @@@@X       ",
"      +XXooo@@XX##@@@@@##X @@@@@X       ",
"      XXoooo@@@X##@@@@@##X@@@@@XX       ",
"     XXooo@@@@@@@##@@@@X @@@@@ X+       ",
"      Xooo@@@@@@@XX@@@@X@@@++++X        ",
"       XXXXXXXX@@@@@@@XXXXXXXXXX        ",
"        XX    XXXXXXXXX                 ",
"                                        ",
"                                        "
};
