/* XPM */
static char *result[] = {
/* columns rows colors chars-per-pixel */
"40 40 42 1 ",
"  c black",
". c #020202",
"X c #070707",
"o c gray3",
"O c #323232",
"+ c #343434",
"@ c #373737",
"# c gray22",
"$ c #3A3A3A",
"% c #8D8D8D",
"& c #909090",
"* c gray57",
"= c #929292",
"- c #939292",
"; c #939393",
": c gray58",
"> c #B8B4B4",
", c #B9B5B5",
"< c #BAB6B6",
"1 c gray73",
"2 c #BCBCBC",
"3 c gray74",
"4 c gray",
"5 c #E3BABA",
"6 c #E3BBBB",
"7 c #C0C0C0",
"8 c #C1C1C1",
"9 c #D8D2D2",
"0 c #DBD4D4",
"q c #DBD5D5",
"w c #DCD5D5",
"e c #DDD5D5",
"r c #DDD6D6",
"t c #DED7D7",
"y c #E7E7E7",
"u c gray92",
"i c gray93",
"p c #EEEEEE",
"a c #F9F9F9",
"s c gray99",
"d c white",
"f c None",
/* pixels */
"dddddddddd&&&&&&&&&&&&&&&&++++++++++++++",
"ddddddddd&&ffff7777777777&&+++++++++++++",
"dddddddd&&ff77777rrrrrrrr7&%@+++++++++++",
"ddddddd&&f778rrrrrrwwwww77&%@+++++++++++",
"ddddddd&f778qrrrrrr8888877&%@+++++++++++",
"dddddd&&,frrrrrr&&,,,,,,77&%@+++++++++++",
"ddddd&&77rrrrr&&,,,<wpppp77%@+++++++++++",
"ddddd&,,,rrrr&&,,,ppppppp77%@+++++++++++",
"ddddd&,,rrf0=&,,,ppppppppp7%@+++++++++++",
"ddddd&,,rrr0=,,ppppppppppp72#+++++++++++",
"ddddd&,,rrr*>,,pppppppppppr2#+++++++++++",
"ddddd;&7rr&->pppipppppiiiii2@+++++++++++",
"ddddds&7rf&>,ppptppppp888tt1o+++++++++++",
"dddddd&            pp7       +++++++++++",
"dddddd&&&ppyX p p      p p .O+++++++++++",
"ddddddd&&pppp     rppr     2#+++++++++++",
"ddddddd&&,,ppppprrrtipppppp+++++++++++++",
"dddddddd&&re655prfrtiprr555+++++++++++++",
"ddddddddd&&=0rrrrr&&&&rrrr7+++++++++++++",
"aaaaaaaaaa2:9rrrrrrtttrrr77$$$$$$$$$$$$$",
"$$$$$$$$$$#3:rrrrrriiirrr77aaaaaaaaaaaaa",
"+++++++++++@%frrrppppprr77dddddddddddddd",
"+++++++++++@%&frr77&&7rr7ddddddddddddddd",
"+++++++++++@%&&frrrpprr7&ddddddddddddddd",
"+++++++++++@%&&7frrtip77&ddddddddddddddd",
"+++++++++++@%&&&77rti7,r&ddddddddddddddd",
"+++++++++++4*&&&&&777,rrr&&&&ddddddddddd",
"++++++++++@3******rrrrrrpppppp;;&sdddddd",
"++++++++++%*&>>>>>rrrrrrppppppuu&;dddddd",
"++++++++++&*>,,rrrritrrrpp&rrrrrr&dddddd",
"++++++++7&&>*&pprrrrrrrppp&=0rrr&&dddddd",
"+++++++7&&,,,,&pprrrrrrppp&frrrr&ddddddd",
"++++++7&&,,<wr&&pprrrrrpp&frrrrr&ddddddd",
"++++++&&,,,<wrr&pprrrrrpp&rrrrr&&ddddddd",
"+++++&&,,,rrrrrrrpprrrr&frrrrrf&7ddddddd",
"++++++%>>>00000rr==rrr0&0004444&dddddddd",
"++++++@***=====rr00rrr=&===****&dddddddd",
"++++++++&&++++&&&&&&&&&ddddddddddddddddd",
"+++++++++++++++++++$addddddddddddddddddd",
"+++++++++++++++++++$addddddddddddddddddd"
};
