/* XPM */
static char *fcfe02ea72414bb7b5b0514fdd8a6576zHSkZqvA4sB5kPL0[] = {
/* columns rows colors chars-per-pixel */
"40 40 6 1 ",
"  c black",
". c gray3",
"X c gray6",
"o c #E6E6E6",
"O c gray93",
"+ c gray96",
/* pixels */
"+++++++++++++++++++O.                   ",
"+++++++++++++++++++O.                   ",
"+++++++++++++++++++O.                   ",
"+++++++++++++++++++O.                   ",
"+++++++++++++++++++O.                   ",
"+++++++++++++++++++O.                   ",
"+++++++++++++++++++O.                   ",
"+++++++++++++++++++O.                   ",
"+++++++++++++++++++O.                   ",
"+++++++++++++++++++O.                   ",
"+++++++++++++++++++O.                   ",
"+++++++++++++++++++O.                   ",
"+++++++++++++++++++O.                   ",
"+++++++++++++++++++O.                   ",
"+++++++++++++++++++O.                   ",
"+++++++++++++++++++O.                   ",
"+++++++++++++++++++O.                   ",
"+++++++++++++++++++O.                   ",
"+++++++++++++++++++O.                   ",
"OOOOOOOOOOOOOOOOOOOoX...................",
"...................XoOOOOOOOOOOOOOOOOOOO",
"                   .O+++++++++++++++++++",
"                   .O+++++++++++++++++++",
"                   .O+++++++++++++++++++",
"                   .O+++++++++++++++++++",
"                   .O+++++++++++++++++++",
"                   .O+++++++++++++++++++",
"                   .O+++++++++++++++++++",
"                   .O+++++++++++++++++++",
"                   .O+++++++++++++++++++",
"                   .O+++++++++++++++++++",
"                   .O+++++++++++++++++++",
"                   .O+++++++++++++++++++",
"                   .O+++++++++++++++++++",
"                   .O+++++++++++++++++++",
"                   .O+++++++++++++++++++",
"                   .O+++++++++++++++++++",
"                   .O+++++++++++++++++++",
"                   .O+++++++++++++++++++",
"                   .O+++++++++++++++++++"
};
