/* XPM */
static char *dd5cbf67497f4f85bf20554e40b4cf81PgymolEW2MGPtN64[] = {
/* columns rows colors chars-per-pixel */
"40 40 8 1 ",
"  c #261C13",
". c #053A16",
"X c #3F2F24",
"o c #0C7F36",
"O c #4C443D",
"+ c #335B40",
"@ c gray75",
"# c #C0C0C0",
/* pixels */
"########################################",
"###########ooooo.#######################",
"########oooooooooo######################",
"######oooooooooooo.#########..ooooooo.##",
"#####o....ooooooooo.#######.oooooooooooo",
"###@#..##...oooooooo.#####.ooooooooo....",
"#####.######..ooooooo.###oooooooooo...##",
"#############...oooooo##ooooooooo....###",
"################..oooo#.oooo.......#####",
"###########ooo.###..oo.ooo..############",
"#########.oooooo.##..o.oo..ooooooooo.###",
"#######.ooooooooooo..o.o..oooooooooooo##",
"######.ooooooooooooo....oooo....oooooo.#",
"#####.oooooooooo.......oo.........ooooo.",
"####.oooooooo....oooo.o.oooooo##...oooo.",
"###..oooooo..###ooooo.o..oooooo.#...oooo",
"##.........###.ooooo..oo..oooooo..#...oo",
"##......####.oooooo..ooo.#.ooooooo##....",
"##########.ooooooo...oooo.#.oooooo.###..",
"########.oooooooo....oooo.#..oooooo#####",
"#######.ooooooo...X .oooooo#..ooooo.####",
"######.ooooooo...XX .oooooo##..oooo.####",
"#####.ooooo....#XXX .oooooo##...oooo.###",
"####.oo......##XXX  .ooooo.###...ooo.###",
"####.o....#####XXX  ..oooo.####....o.###",
"####...#######XXX   ..oooo.#####.....###",
"#############XXXX   #.oooo.#############",
"############XXXXX  ##..ooo.#############",
"###########XXXXX   ###..oo.#############",
"##########XXXXXX   ###..o..#############",
"#########XXXXXXX  #####.o.########@#####",
"#########XXXXXX   #####...##############",
"########XXXXXXX  #######+###############",
"########XXXXXXX  ##########@############",
"#######XXXXXXX   #######@@@###########@#",
"######XXXXXXX   ########@@######@@######",
"######XXXXXX   O################@#######",
"###### XXXX    #####@@##################",
"######        ##########################",
"#######      ###########################"
};
