/* XPM */
static char *result[] = {
/* columns rows colors chars-per-pixel */
"40 40 75 1 ",
"  c #251D13",
". c #261C13",
"X c #241E13",
"o c #271D14",
"O c #281D14",
"+ c #063916",
"@ c #053A16",
"# c #073A16",
"$ c #063A17",
"% c #053C17",
"& c #053E18",
"* c #073E19",
"= c #083B19",
"- c #0B3D1B",
"; c #083E1A",
": c #0B3E1C",
"> c #2B2019",
", c #3E2E23",
"< c #3D2F24",
"1 c #3E2E24",
"2 c #3F2F24",
"3 c #313532",
"4 c #333433",
"5 c #353433",
"6 c #333634",
"7 c #343434",
"8 c #363536",
"9 c #343936",
"0 c #393839",
"q c #3A3A3A",
"w c #0D401D",
"e c #0E401E",
"r c #0C7B34",
"t c #0C7D35",
"y c #0D7D36",
"u c #0C7F36",
"i c #4B433C",
"p c #335B40",
"a c #6E4D6E",
"s c #6F4D6F",
"d c #714E71",
"f c #745074",
"g c #745174",
"h c #755475",
"j c #0E8138",
"k c #0F843A",
"l c #14833C",
"z c #3BC06A",
"x c #3BC46C",
"c c #3CC56C",
"v c #3CC76D",
"b c #3EC96F",
"n c #44C672",
"m c #44CB73",
"M c #B88AB9",
"N c #BF8BBE",
"B c #BE8CBF",
"V c #C18DC1",
"C c #C48FC4",
"Z c #C490C4",
"A c #C3A8C3",
"S c #C4A8C4",
"D c #C6A9C6",
"F c #C9ABC9",
"G c #C9ACC9",
"H c #CBAFCB",
"J c #F1F3F2",
"K c #F3F7F4",
"L c #F7F9F8",
"P c #F7FBF9",
"I c #F9F9F9",
"U c #FBF9FB",
"Y c #F9FDFA",
"T c #FDFCFD",
"R c white",
/* pixels */
"RRRRRRRRRRRRRRRRRRRIq7777777777777777777",
"RRRRRRRRRRRjvbbb@RRIq7777777777777777777",
"RRRRRRRRubbbbuubbuRIq7777777777777777777",
"RRRRRPttttujjjuuuu%Jq7777773;*bvvvvvk*66",
"RRRRRl%%%%uvvvuuuute4777777;zcbjjjjbvcyy",
"RRRRR@@RR@@%tbbuuuut%77777@bbuuuuuut%@@@",
"RRRRR@RRGGCB-@bbbuuuu@777uuuuuuuuuu@@@d7",
"RRRRRRRGGCCCC@@@bbbuuu77uuuuuuuuu@@@@d77",
"RRRRRRRGCCCCCCCC@@bvju7@uuut%@@@@@@ddd77",
"RRRRRRGGGGGuuu@CCC@%tu@uuu@=adddddds8777",
"RRRRRRRRR@ubbbbu@CC@@u@uu@@uuuuubbbc*777",
"RRRRRRL*jbvxjuuuuuu%@t@t%%uuttttuuuvvb47",
"RRRRRRwcvbjjuuuuuuur%%@%ttut&%%%uuujjb$7",
"RRRRR@ubuuuuuuuu@@@@@@@uu@@@@@@@@@ujvuu@",
"RRRLwubbuuuuu@@@@uuuu@u@uuuuuudd@@@jvbb@",
"RRR@@uuuuuu@@CCCuuuuu@u@@uujvbb@d@@%tubb",
"RR@@@@@@@@@CCC@uuuut%@uu@@uuuubb@@d@@@ub",
"RR@@@@@@CCCB-bbuuuu@@uuu@7@uuuubbuda=@@@",
"RRGFZCCCCC@bbbuuuu@@@uuuu@7%tuuubb@ddd@@",
"IIISSSSA*jbxjuutt@#+@ujuu*6-@tvjuvb9qqhh",
"qqq0000:cvbjuuu%%@<X+uvuucyM-%jvujbnKIUU",
"777777@bbuuuuu@@@22 +ubuubuCC@@bbbumYRRR",
"77777@bbuuu@@@@d222 +ubbbbuCC@@@ubbc*RRR",
"7774$ub@@@@@@dd222. +uubbu@FZC@@@ubc*RRR",
"7774$bb@@@dddd7222. +@ubbu@GGCC@@@@t%RRR",
"7774$@@ddd7777222.. +@ubbu@THGCC@@@@@RRR",
"77777777777772222..>N@uubu@RRGGCCCCCCRRR",
"7777777777752222,..fV-@tuu@RRRRRRRRRRRRR",
"7777777777722222o..fVB@%uu@RRRRRRRRRRRRR",
"7777777777222222...gDC@@u@@RRRRRRRRRRRRR",
"7777777772222222..dgDCC@u@CRRRRRRRRRRRRR",
"777777777222222...d0SGC@@@CRRRRRRRRRRRRR",
"777777772222222..ddqIGGCpCRRRRRRRRRRRRRR",
"777777772222222..d7qIRGCCCRRRRRRRRRRRRRR",
"77777772222222...77qIRRGRRRRRRRRRRRRRRRR",
"7777772222221..o777qIRRRRRRRRRRRRRRRRRRR",
"777777222221O..i777qIRRRRRRRRRRRRRRRRRRR",
"777777.2222....7777qIRRRRRRRRRRRRRRRRRRR",
"777777........77777qIRRRRRRRRRRRRRRRRRRR",
"7777777......777777qIRRRRRRRRRRRRRRRRRRR"
};
