/* XPM */
static char *a4b57cada595490bd003245af009b9941SG3kjcisEFAI08F[] = {
/* columns rows colors chars-per-pixel */
"40 40 11 1 ",
"  c None",
". c #554A55",
"X c green",
"o c magenta",
"O c #908190",
"+ c #B49EB4",
"@ c #BEABBE",
"# c #E399D3",
"$ c #C3B4C3",
"% c #F4E3F4",
"& c white",
/* pixels */
"                                        ",
"                                        ",
"         OOOOOOOOOOOOOOOOOOOOOOOOOO     ",
"        O++++++++++++++++++++++++%O.    ",
"       O++++++++++++++++++++++++%OO.    ",
"      .+%%%%%%%%%%%%%%%%%%%%%%%%OOO.    ",
"      O$@$$$$$$$$$$$$$$$$$$$$$$$OOO.    ",
"      O$$$$$$$$$$$$$$$$$$$%$$$$$OOO.    ",
"      O$$$$$$$$$$$$$$$$$$$$$$$$$OOO.    ",
"      O$$$...................%$$OOO.    ",
"      O$$$.oooooooooooooooooo%$$OOO.    ",
"      O$$$.oooooooooooooooooo%$$OOO.    ",
"      O$$$.oooooo&&&&&&oooooo%$$OOO.    ",
"      O$$$.ooooo&&&&&&&&ooooo%$$OOO.    ",
"      O$$$.oooo&&&.&&.&&&oooo%$$OOO.    ",
"      O$$$.oooo%&&.&&.&&%oooo%$$OOO.    ",
"      O$$$.ooooo&#&&&&#&ooooo%$$OOO.    ",
"      O$$$.ooooo&&....&&ooooo%$$OOO.    ",
"      O$$$.oooooo%&##&%oooooo%$$OOO.    ",
"      O$$$.ooooooo&&&&ooooooo%$$OOO.    ",
"      O$$$.ooooooo%&&%ooooooo%$$OOO.    ",
"      O$$$.ooooo%&&&&&&%ooooo%$$OOO.    ",
"      O$$$.oooooooooooooooooo%$$OOO.    ",
"      O$$$.%%%%%%%%%%%%%%%%%%%$$OOO.    ",
"      O$$$$$$$$$$$$$$$$$$$$$$$$$OOO.OO  ",
"      O$$$$$$$$$$$$$$$$$$$$$$$$$OO.$$O. ",
"      O$$$$$$$$$$$$$$$$$$$$$$$$$O.$$%O. ",
"     OOOOOOOOOOOOOOOOOOOOOOOOOO..$$%OO. ",
"    O$O.........................$$%O$O. ",
"   O$$$$$$$$$$$$$$$$$$$$$$$$$$$$$%O$$O. ",
"  OOOOOOOOOOOOOOOOOOOOOOOOOOOOOOOO$$$O. ",
"  O%%%%%%%%%%%%%%%%%%%%%%%%%%%%%O$$$$O. ",
"  O%$$$$$$$$$$$$$$$$$$$$$$$$$$$$O$$$$O. ",
"  O%$$XX$$$$$$$$$$$$OOOOOOOOO$$$O$$$OO. ",
"  O%$$..$$$$$$$$$$$$.........$$$O$$OO.  ",
"  O%$$$$$$$$$$$$$$$$$$$$$$$$$$$$O$OO.   ",
"  O%$$$$$$$$$$$$$$$$$$$$$$$$$$$$OOO.    ",
"  OOOOOOOOOOOOOOOOOOOOOOOOOOOOOOOO.     ",
"   ...............................      ",
"                                        "
};
