/* XPM */
static char *result[] = {
/* columns rows colors chars-per-pixel */
"40 40 43 1 ",
"  c black",
". c #343434",
"X c #353535",
"o c #373637",
"O c #3A3A3A",
"+ c gray23",
"@ c #544954",
"# c #544A54",
"$ c #554A55",
"% c #574C57",
"& c #584D58",
"* c #5A4F5A",
"= c #5A505A",
"- c #5C515C",
"; c red",
": c #8A7C8A",
"> c #8D7E8D",
", c #8E7F8E",
"< c #908190",
"1 c #918291",
"2 c #928392",
"3 c #938493",
"4 c #938593",
"5 c #958695",
"6 c #B39DB3",
"7 c #B49EB4",
"8 c #B6A0B6",
"9 c #BEABBE",
"0 c #C0B1C0",
"q c #C1B2C1",
"w c #C3B4C3",
"e c #C5B5C5",
"r c #EEDDEE",
"t c #F1E0F1",
"y c #F2E1F2",
"u c #F2E2F2",
"i c #F4E3F4",
"p c #F4F3F4",
"a c #F5F4F5",
"s c #F9F9F9",
"d c #FAF9FA",
"f c #FCFBFC",
"g c white",
/* pixels */
"gggggggggggggggggggsO...................",
"gggggggggggggggggggsO...................",
"ggggggggg<<<<<<<<<<<<<<<<<<<<<<<<<<.....",
"gggggggf1777777777777777777777778t<@X...",
"ggggggg4677777777777777777777777y3<@X...",
"gggggg$7iiiiiiiiiiiiiiiiiiiiiiii<<<@X...",
"gggggg<w9wwwwwwwwwwwwwwwwwwwwwww<<<@X...",
"gggggg<wwwwwwwwwwwwwwwwwwwwwwwww<<<@X...",
"gggggg<wwwwwwwwwwwwwwwwwwwwwwwww<<<@X...",
"gggggg<www$$$$$$$$$$$$$$$$$$$iww<<<@X...",
"gggggg<www$                  iww<<<@X...",
"gggggg<www$                  iww<<<@X...",
"gggggg<www$                  iww<<<@X...",
"gggggg<www$                  iww<<<@X...",
"gggggg<www$                  iww<<<@X...",
"gggggg<www$                  iww<<<@X...",
"gggggg<www$                  iww<<<@X...",
"gggggg<www$                  iww<<<@X...",
"gggggg<www$                  iww<<<@X...",
"ssssss<www$                  iww<<<#+OOO",
"OOOOOO<www$                  iww<<<*psss",
"......<www$                  iww<<<=dggg",
"......<www$                  iww<<<=dggg",
"......<www$iiiiiiiiiiiiiiiiiiiww<<<=dggg",
"......<wwwwwwwwwwwwwwwwwwwwwwwww<<<%,<gg",
"......<wwwwwwwwwwwwwwwwwwwwwwwww<<$ww<$g",
"......<wwwwwwwwwwwwwwwwwwwwwwwww<$weu<$g",
"....o2<,,,,,,,,,,,,,,,,,,,,,,,,$&wer5<$g",
"...o:q<%%%%%%%%%%%%%%%%%%%%%%%%$0wu50<$g",
"...2qwwwwwwwwwwwwwwwwwwwwwwwwwwwwi<ww<$g",
"..<<<<<<<<<<<<<<<<<<<<<<<<<<<<<<<<www<$g",
"..<iiiiiiiiiiiiiiiiiiiiiiiiiiiii<wwww<$g",
"..<uewwwwwwwwwwwwwwwwwwwwwwwwwww<wwww<$g",
"..<uew;;wwwwwwwwwwwq2<<<<<<<<www<wwq2<$g",
"..<uew$$wwwwwwwwwww0&$$$$$$$$www<ww<<$gg",
"..<uewwwwwwwwwwwwwwwwwwwwwwwwwww<q<>-ggg",
"..<uewwwwwwwwwwwwwwwwwwwwwwwwwww<2<-aggg",
"..<<<<<<<<<<<<<<<<<<<<<<<<<<<<<<<<$ggggg",
"...$$$$$$$$$$$$$$$$$$$$$$$$$$$$$$$gggggg",
"...................Osggggggggggggggggggg"
};
