/* XPM */
static char *result[] = {
/* columns rows colors chars-per-pixel */
"40 40 62 1 ",
"  c #343434",
". c #383638",
"X c #3B373B",
"o c #3A3A3A",
"O c #554A55",
"+ c #574C57",
"@ c #584B58",
"# c #584D58",
"$ c #5A4C59",
"% c #5A4C5A",
"& c #5B4E5B",
"* c green",
"= c #8D7E8D",
"- c #8E7F8E",
"; c #A568A5",
": c #A569A5",
"> c #A669A6",
", c #A86AA8",
"< c #A96AA9",
"1 c #AB6BAB",
"2 c #AB6CAB",
"3 c magenta",
"4 c #FF08FF",
"5 c #908190",
"6 c #918091",
"7 c #918291",
"8 c #928392",
"9 c #938393",
"0 c #938493",
"q c #958695",
"w c #B39DB3",
"e c #B49EB4",
"r c #B6A0B6",
"t c #BEABBE",
"y c #E38CDD",
"u c #E399D3",
"i c #C0B1C0",
"p c #C1B2C1",
"a c #C3B4C3",
"s c #C5B5C5",
"d c #E58DE0",
"f c #E78EE1",
"g c #EA8FE4",
"h c #EC90E6",
"j c #ED93E7",
"k c #F3B5F3",
"l c #F4B5F4",
"z c #F6B7F6",
"x c #F6B9F6",
"c c #EEDDEE",
"v c #F4D8EE",
"b c #F1E0F1",
"n c #F2E1F2",
"m c #F2E2F2",
"M c #F4E3F4",
"N c #F4E4F4",
"B c #FFF7FF",
"V c #F9F9F9",
"C c #FEFCFE",
"Z c #FFFDFF",
"A c #FFFEFF",
"S c white",
/* pixels */
"SSSSSSSSSSSSSSSSSSSVo                   ",
"SSSSSSSSzzzzzzzzzzzl2<<<<<<<<<<<<<<;.   ",
"SSSSSSSzz55555555555555555555555555<<   ",
"SSSSSZzk7eeeeeeeeeeeeeeeeeeeeeeerb5@>   ",
"SSSSSxz9weeeeeeeeeeeeeeeeeeeeeeen05@>   ",
"SSSSSzOeMMMMMMMMMMMMMMMMMMMMMMMM555@>   ",
"SSSSSz5ataaaaaaaaaaaaaaaaaaaaaaa555@>   ",
"SSSSSz5aaaaaaaaaaaaaaaaaaaMaaaaa555@>   ",
"SSSSSz5aaaaaaaaaaaaaaaaaaaaaaaaa555@>   ",
"SSSSSz5aaaOOOOOOOOOOOOOOOOOOOMaa555@>   ",
"SSSSSz5aaaO333333333333333333Maa555@>   ",
"SSSSSz5aaaO333333444444333333Maa555@>   ",
"SSSSSz5aaaO333333BBBBBB333333Maa555@>   ",
"SSSSSz5aaaO33333SSSSSSSS33333Maa555@>   ",
"SSSSSz5aaaO3333SSSOSSOSSS3333Maa555@>   ",
"SSSSSz5aaaO3333MSSOSSOSSM3333Maa555@>   ",
"SSSSSz5aaaO33333SuSSSSuS33333Maa555@>   ",
"SSSSSz5aaaO33333SSOOOOSS33333Maa555@>   ",
"SSSSSz5aaaO333333MSuuSM333333Maa555@>   ",
"VVVVVl5aaaO3333333ASSA3333333Maa555@,ooo",
"ooooo25aaaO3333333NSSN3333333Maa555$dVVV",
"     <5aaaO33333MSSSSSSM33333Maa555%fSSS",
"     <5aaaO333333333333333333Maa555%fSSS",
"     <5aaaOMMMMMMMMMMMMMMMMMMMaa555%fhhS",
"     <5aaaaaaaaaaaaaaaaaaaaaaaaa555+-5hh",
"     <5aaaaaaaaaaaaaaaaaaaaaaaaa55Oaa5Oh",
"     <5aaaaaaaaaaaaaaaaaaaaaaaaa5Oasm5Oh",
"   X:85------------------------O#ascq5Oh",
"   :6p5++++++++++++++++++++++++Oiamqi5Oh",
"  <8paaaaaaaaaaaaaaaaaaaaaaaaaaaaM5aa5Oh",
" <55555555555555555555555555555555aaa5Oh",
" <5MMMMMMMMMMMMMMMMMMMMMMMMMMMMM5aaaa5Oh",
" <5msaaaaaaaaaaaaaaaaaaaaaaaaaaa5aaaa5Oh",
" <5msa**aaaaaaaaaaap855555555aaa5aap85Oh",
" <5msaOOaaaaaaaaaaai#OOOOOOOOaaa5aa55Ohv",
" <5msaaaaaaaaaaaaaaaaaaaaaaaaaaa5p5=&hjS",
" <5msaaaaaaaaaaaaaaaaaaaaaaaaaaa585&yhCS",
" <55555555555555555555555555555555OhhSSS",
" <<OOOOOOOOOOOOOOOOOOOOOOOOOOOOOOOhjCSSS",
"  <<<<<<<<<<<<<<<<<1ghhhhhhhhhhhhhhSSSSS"
};
